# xmcd
#
# Track frame offsets:
# 150
# 19195
# 38365
# 59563
# 80783
# 108465
# 131238
# 150688
# 176935
# 196040
#
# Disc length: 2920 seconds
#
#
# Revision: 1
# Processed by: cddbd v1.5.2PL0 Copyright (c) Steve Scherf et al.
# Submitted via: FreeRIP 2.951 
#
DISCID=860b660a
DTITLE=Marcos Witt - Adoremos!
DYEAR=1994
DGENRE=Música Cristiana
TTITLE0=Tengo La Victoria
TTITLE1=Un Adorador
TTITLE2=Tu Misericordia
TTITLE3=Libertad
TTITLE4=Te Amo
TTITLE5=Resucitó
TTITLE6=Mira
TTITLE7=Yo Soy
TTITLE8=Adoremos
TTITLE9=Hoy
EXTD=By 107,5 FM [www.1075fm.com.br]
EXTT0=
EXTT1=
EXTT2=
EXTT3=
EXTT4=
EXTT5=
EXTT6=
EXTT7=
EXTT8=
EXTT9=
PLAYORDER=
